
<svg xmlns="http://www.w3.org/2000/svg" width="597" height="136" viewBox="0 0 597 136" version="1.1">
	<path d="M 5 69.500 L 5 133 68.500 133 L 132 133 132 69.500 L 132 6 68.500 6 L 5 6 5 69.500 M 11 69 L 11 126 68.500 126 L 126 126 126 69 L 126 12 68.500 12 L 11 12 11 69 M 61.978 18.014 C 44.827 20.107, 28.889 31.505, 21.313 47.099 C 5.634 79.370, 25.864 117.068, 61.616 122.203 C 85.489 125.631, 109.256 111.326, 118.052 88.236 C 120.804 81.010, 121.775 66.472, 120.012 58.875 C 113.913 32.589, 88.600 14.767, 61.978 18.014 M 57.335 23.423 C 51.279 24.892, 41.738 29.527, 39.358 32.157 C 38.441 33.171, 38.162 34, 38.738 34 C 39.314 34, 40.052 33.306, 40.378 32.457 C 40.832 31.273, 41.416 31.152, 42.885 31.939 C 44.363 32.729, 44.939 32.601, 45.409 31.376 C 46.121 29.522, 50.567 30.218, 52.955 32.556 C 54.225 33.800, 54.163 34.160, 52.466 35.402 C 51.397 36.183, 50.132 36.581, 49.654 36.286 C 49.177 35.991, 49.384 35.380, 50.115 34.929 C 51.158 34.284, 51.065 33.962, 49.685 33.433 C 48.638 33.031, 47.200 33.414, 46.134 34.379 C 45.149 35.270, 43.703 36.014, 42.921 36.032 C 41.180 36.071, 38 38.389, 38 39.620 C 38 40.114, 38.877 41.067, 39.949 41.736 C 41.643 42.794, 42.174 42.565, 44.017 39.976 C 45.182 38.339, 46.521 37, 46.991 37 C 48.395 37, 54.057 43.099, 53.496 44.007 C 53.210 44.469, 51.520 45.173, 49.739 45.573 C 47.957 45.973, 47.063 46.495, 47.750 46.733 C 49.644 47.390, 49.248 48.787, 46.960 49.513 C 44.096 50.422, 37 58.037, 37 60.201 C 37 62.163, 35.942 62.527, 34.450 61.077 C 32.800 59.473, 27.905 61.114, 26.745 63.659 C 25.336 66.753, 27.089 69.001, 29.410 67.075 C 30.666 66.032, 31.150 66.424, 32.452 69.539 C 33.303 71.577, 34 73.639, 34 74.122 C 34 75.452, 35.799 75.178, 38.443 73.446 C 40.020 72.412, 41.033 72.245, 41.466 72.946 C 41.825 73.526, 43.032 74, 44.148 74 C 45.265 74, 48.051 75.925, 50.339 78.277 C 52.628 80.630, 55.962 83.159, 57.750 83.899 C 61.295 85.365, 61.470 85.864, 60.035 90.429 C 59.504 92.118, 58.828 94.708, 58.532 96.183 C 58.234 97.676, 57.109 99.148, 55.998 99.501 C 54.785 99.886, 54 101.014, 54 102.372 C 54 103.602, 52.450 106.301, 50.556 108.370 C 47.501 111.704, 46.850 112.003, 44.806 111.010 C 42.603 109.940, 42.587 109.959, 44.440 111.444 C 51.446 117.057, 69.831 119.645, 80.556 116.527 C 102.421 110.171, 116 92.718, 116 70.973 C 116 65.607, 115.648 63.099, 114.956 63.527 C 114.382 63.882, 113.279 63.646, 112.504 63.004 C 111.730 62.361, 110.287 62.026, 109.298 62.260 C 107.839 62.605, 108.019 62.899, 110.250 63.818 C 113.782 65.272, 113.714 66.460, 109.904 69.941 C 107.733 71.924, 107.210 72.918, 108.154 73.268 C 109.186 73.651, 108.859 74.960, 106.750 78.884 C 104.806 82.501, 104 85.457, 104 88.965 C 104 92.804, 103.573 94.158, 102.116 94.938 C 101.080 95.492, 99.947 97.471, 99.597 99.336 C 98.841 103.364, 96.462 105.758, 92.408 106.568 C 89.496 107.151, 89.427 107.064, 88.133 101.231 C 87.409 97.970, 86.939 94.221, 87.088 92.901 C 87.237 91.580, 86.981 88.925, 86.519 87 C 85.774 83.894, 85.348 81.413, 85.083 78.623 C 85.037 78.140, 82.736 77.963, 79.968 78.229 C 75.351 78.673, 74.732 78.471, 72.468 75.780 C 70.072 72.932, 69.534 71.575, 69.976 69.500 C 70.094 68.950, 70.353 67.677, 70.553 66.670 C 71.383 62.487, 72.268 60.972, 75.583 58.062 C 79.354 54.751, 84.848 53.906, 86.858 56.329 C 88.091 57.814, 97.645 58.383, 98.487 57.021 C 99.222 55.831, 93.238 52.972, 91.449 53.658 C 90.652 53.964, 90 53.730, 90 53.138 C 90 52.547, 89.397 52.294, 88.660 52.577 C 87.923 52.860, 86.743 52.396, 86.038 51.546 C 84.262 49.406, 83.280 49.595, 80.479 52.617 C 79.031 54.179, 77.438 54.998, 76.527 54.649 C 74.400 53.832, 74.614 50.257, 76.832 49.553 C 78.980 48.872, 79.041 45.315, 76.930 43.844 C 75.838 43.083, 75.795 42.728, 76.750 42.341 C 77.438 42.062, 78.010 41.083, 78.022 40.167 C 78.040 38.867, 78.449 39.026, 79.885 40.894 C 81.150 42.539, 82.160 43.018, 83.113 42.425 C 83.876 41.950, 85.475 41.688, 86.666 41.841 C 89.144 42.161, 90.976 39.624, 90.256 36.869 C 89.585 34.307, 88 35.570, 88 38.666 C 88 40.579, 87.606 41.063, 86.418 40.607 C 85.548 40.273, 84.198 40, 83.418 40 C 81.132 40, 81.780 37.585, 84.858 34.636 C 87.911 31.711, 89.890 31.223, 94.215 32.327 C 96.262 32.850, 96.769 33.448, 96.277 34.760 C 95.703 36.292, 95.830 36.333, 97.338 35.107 C 98.902 33.834, 98.913 33.562, 97.470 31.967 C 95.112 29.361, 84.232 24.356, 78.201 23.102 C 71.484 21.705, 63.938 21.821, 57.335 23.423 M 50.662 26.618 C 47.031 28.586, 47.933 29.568, 52.052 28.132 C 54.834 27.162, 55.425 27.295, 57.073 29.266 C 58.100 30.495, 58.719 32.126, 58.448 32.891 C 57.702 34.994, 58.950 38, 60.567 38 C 61.355 38, 62 37.534, 62 36.964 C 62 36.395, 64.028 35.060, 66.507 33.997 C 71.592 31.817, 74.475 27.546, 71.943 25.944 C 69.974 24.698, 62.746 24.766, 59.336 26.062 C 57.364 26.812, 56.437 26.812, 56.187 26.062 C 55.706 24.619, 54.042 24.786, 50.662 26.618 M 150.625 32.124 C 150.281 33.843, 150 38.344, 150 42.125 L 150 49 157.500 49 L 165 49 165 78.500 L 165 108 175.985 108 L 186.970 108 187.235 78.750 L 187.500 49.500 194.647 49.208 L 201.794 48.917 202.562 39.708 C 203.472 28.798, 202.646 25.591, 211.071 72.750 L 217.369 108 234.505 108 L 251.641 108 258.182 69.250 C 261.780 47.938, 264.534 30.163, 264.303 29.750 C 263.752 28.768, 242.259 28.772, 241.652 29.754 C 241.396 30.169, 240.237 40.181, 239.078 52.004 C 236.601 77.256, 236.120 80.557, 235.090 79.380 C 234.666 78.896, 233.094 68.825, 231.598 57 C 230.101 45.175, 228.632 34.049, 228.332 32.275 L 227.787 29.051 189.519 29.025 L 151.250 28.999 150.625 32.124 M 292.552 30.250 C 292.340 30.938, 291.928 35.419, 291.635 40.209 L 291.103 48.918 298.802 49.209 L 306.500 49.500 306.765 78.750 L 307.030 108 318.015 108 L 329 108 329 78.500 L 329 49 336.350 49 L 343.701 49 344.347 39.899 C 344.702 34.893, 344.743 30.393, 344.437 29.899 C 344.132 29.404, 332.419 29, 318.410 29 C 298.904 29, 292.847 29.293, 292.552 30.250 M 349.186 60.717 C 349.498 92.323, 349.514 92.528, 352 97.499 C 356.330 106.157, 363.770 109.465, 378.500 109.284 C 392.180 109.115, 400.047 105.568, 404.273 97.666 C 406.423 93.644, 406.510 92.386, 406.801 61.250 L 407.103 29 396.051 29 L 385 29 385 56.777 C 385 87.975, 384.795 89, 378.566 89 C 372.652 89, 372.550 88.514, 372 57.598 L 371.500 29.500 360.186 29.217 L 348.873 28.933 349.186 60.717 M 418 68.500 L 418 108 427.976 108 L 437.953 108 438.226 90.750 L 438.500 73.500 446.088 90.500 L 453.675 107.500 464.588 107.500 L 475.500 107.500 475.779 70.500 C 475.932 50.150, 475.807 32.471, 475.501 31.214 C 474.962 29.002, 474.629 28.938, 465.222 29.214 L 455.500 29.500 455 47.448 L 454.500 65.396 447.050 47.198 L 439.599 29 428.800 29 L 418 29 418 68.500 M 486 68.500 L 486 108 507.500 108 L 529 108 529 105.147 C 529 103.577, 529.289 99.527, 529.642 96.147 L 530.285 90 519.142 90 L 508 90 508 84 L 508 78 517 78 L 526 78 526 69 L 526 60 517 60 L 508 60 508 54.500 L 508 49 518.500 49 L 529 49 529.007 45.750 C 529.011 43.962, 529.301 39.462, 529.652 35.750 L 530.289 29 508.145 29 L 486 29 486 68.500 M 537 68.406 L 537 108 548 108 L 559 108 559 94 C 559 86.300, 559.384 80, 559.854 80 C 560.324 80, 562.430 86.300, 564.535 94 L 568.363 108 580.181 108 C 588.518 108, 592 107.656, 592 106.834 C 592 106.192, 589.975 99.268, 587.500 91.447 C 585.025 83.625, 583 76.695, 583 76.046 C 583 75.397, 584.131 73.383, 585.514 71.571 C 592.975 61.789, 592.610 42.591, 584.824 35.298 C 579.617 30.421, 575.716 29.602, 555.750 29.195 L 537 28.813 537 68.406 M 32.583 38.464 C 28.658 43.254, 24.020 50.865, 24.030 52.500 C 24.033 53.050, 25.398 51.028, 27.063 48.007 C 28.728 44.987, 31.105 41.387, 32.345 40.007 C 35.515 36.482, 37.332 34, 36.743 34 C 36.467 34, 34.595 36.009, 32.583 38.464 M 71.543 34.931 C 70.860 36.036, 72.437 37.230, 73.361 36.306 C 74.311 35.355, 74.134 34, 73.059 34 C 72.541 34, 71.859 34.419, 71.543 34.931 M 559 57.392 C 559 65.854, 559.041 66, 561.443 66 C 564.717 66, 567 62.495, 567 57.469 C 567 52.633, 565.508 50.352, 561.750 49.446 L 559 48.783 559 57.392 M 99 62.418 C 99 63.220, 104.109 73, 104.528 73 C 105.066 73, 103.504 68.875, 101.496 64.993 C 100.131 62.353, 99 61.186, 99 62.418 M 21.200 75.219 C 21.962 87.091, 29.739 101.406, 39.016 108.011 L 41.931 110.087 41.488 103.372 C 41.137 98.046, 40.549 96.123, 38.645 94.078 C 34.368 89.485, 33.689 87.293, 34.967 82.217 C 35.888 78.560, 35.856 77.499, 34.809 76.910 C 34.089 76.506, 32.419 75.236, 31.097 74.088 C 29.775 72.939, 28.149 72, 27.482 72 C 26.815 72, 25.019 71.017, 23.491 69.815 L 20.713 67.629 21.200 75.219" stroke="none" fill="black" fill-rule="evenodd"/>
</svg>